<svg width="22" height="29" viewBox="0 0 22 29" fill="none" xmlns="http://www.w3.org/2000/svg">
<path d="M18.6407 8.63946C18.5486 8.63133 18.4557 8.64143 18.3675 8.66919C18.2792 8.69695 18.1973 8.74182 18.1264 8.80124C18.0555 8.86066 17.997 8.93347 17.9543 9.0155C17.9115 9.09754 17.8854 9.18719 17.8773 9.27934L17.8718 9.34111H3.43792L3.43248 9.27934C3.4161 9.09324 3.32646 8.92128 3.18329 8.80127C3.04012 8.68127 2.85513 8.62305 2.66904 8.63943C2.48294 8.65581 2.31097 8.74545 2.19097 8.88863C2.07096 9.0318 2.01275 9.21678 2.02913 9.40288L3.68376 28.1999C3.69922 28.3753 3.77983 28.5386 3.90971 28.6575C4.0396 28.7765 4.20932 28.8425 4.38544 28.8425H16.9243C17.1004 28.8425 17.2701 28.7765 17.4 28.6575C17.5299 28.5386 17.6105 28.3753 17.626 28.1999L19.2806 9.40288C19.297 9.21679 19.2388 9.03182 19.1188 8.88865C18.9988 8.74549 18.8268 8.65585 18.6407 8.63946Z" fill="#9AD143"/>
<path d="M20.535 4.97971H19.0379L17.7612 2.65005C17.409 1.86097 16.8358 1.19078 16.1108 0.720493C15.3859 0.250209 14.5403 -3.78191e-05 13.6762 5.60979e-09H7.63361C6.76949 -4.32619e-05 5.92385 0.250201 5.19891 0.720486C4.47397 1.19077 3.90076 1.86096 3.54857 2.65005L2.27185 4.97971H0.774797C0.569308 4.97971 0.372236 5.06134 0.226933 5.20664C0.0816302 5.35194 0 5.54902 0 5.75451V9.34111C0 9.5466 0.0816302 9.74368 0.226933 9.88898C0.372236 10.0343 0.569308 10.1159 0.774797 10.1159H20.535C20.7405 10.1159 20.9376 10.0343 21.0829 9.88898C21.2282 9.74368 21.3098 9.5466 21.3098 9.34111V5.75451C21.3098 5.65275 21.2898 5.552 21.2508 5.458C21.2119 5.36399 21.1548 5.27858 21.0829 5.20663C21.0109 5.13468 20.9255 5.07761 20.8315 5.03868C20.7375 4.99974 20.6367 4.9797 20.535 4.97971Z" fill="#00A66A"/>
<path d="M12.369 20.5535C11.9983 20.8734 11.5557 21.0989 11.079 21.2108C10.6023 21.3227 10.1056 21.3176 9.63125 21.1959L9.69301 21.1674C9.86253 21.0889 9.99393 20.9463 10.0583 20.7709C10.1227 20.5955 10.1148 20.4018 10.0363 20.2323C9.9578 20.0627 9.81519 19.9313 9.63982 19.867C9.46445 19.8026 9.2707 19.8105 9.10117 19.889L7.43925 20.6583C7.35324 20.6982 7.27615 20.7549 7.2126 20.8252C7.14905 20.8955 7.10034 20.9779 7.0694 21.0675C7.03845 21.1571 7.02591 21.252 7.03252 21.3466C7.03912 21.4411 7.06474 21.5334 7.10785 21.6178L7.94049 23.2489C7.98202 23.3322 8.03963 23.4064 8.11001 23.4673C8.18039 23.5282 8.26213 23.5745 8.35052 23.6037C8.43891 23.6328 8.53219 23.6441 8.62497 23.6369C8.71776 23.6298 8.80821 23.6043 8.89109 23.562C8.97397 23.5197 9.04765 23.4614 9.10787 23.3904C9.16809 23.3195 9.21364 23.2373 9.24192 23.1486C9.27019 23.06 9.28061 22.9666 9.27258 22.8739C9.26455 22.7812 9.23823 22.691 9.19514 22.6085L9.15299 22.5259C9.86379 22.7312 10.6146 22.7557 11.3373 22.5973C12.06 22.4388 12.7317 22.1023 13.2913 21.6184C13.3612 21.5578 13.4185 21.4841 13.46 21.4014C13.5014 21.3187 13.5261 21.2286 13.5327 21.1364C13.5394 21.0441 13.5277 20.9514 13.4986 20.8637C13.4694 20.7759 13.4232 20.6947 13.3626 20.6248C13.3021 20.5549 13.2283 20.4976 13.1456 20.4562C13.0629 20.4147 12.9729 20.39 12.8806 20.3834C12.7883 20.3768 12.6957 20.3884 12.6079 20.4176C12.5201 20.4468 12.4389 20.493 12.369 20.5535Z" fill="#084444"/>
<path d="M7.47027 19.0219C7.34477 18.5486 7.33561 18.052 7.44356 17.5744C7.55151 17.0967 7.77338 16.6523 8.09024 16.279L8.08893 16.3469C8.08714 16.4394 8.10359 16.5313 8.13734 16.6174C8.17108 16.7035 8.22146 16.7822 8.2856 16.8488C8.34973 16.9155 8.42637 16.9689 8.51113 17.0059C8.59589 17.0429 8.68712 17.0629 8.7796 17.0647C8.78421 17.0648 8.78882 17.0648 8.79343 17.0648C8.97783 17.0648 9.15486 16.9924 9.28648 16.8632C9.4181 16.7341 9.49382 16.5584 9.49738 16.3741L9.53266 14.543C9.53451 14.4482 9.5172 14.3541 9.48177 14.2662C9.44635 14.1782 9.39354 14.0984 9.32651 14.0314C9.25981 13.9639 9.18001 13.9108 9.09202 13.8754C9.00404 13.8399 8.90972 13.8228 8.81489 13.8252L6.98383 13.8604C6.89107 13.8618 6.7995 13.8814 6.71438 13.9183C6.62925 13.9552 6.55224 14.0085 6.48777 14.0752C6.4233 14.1419 6.37265 14.2206 6.33871 14.307C6.30477 14.3933 6.28821 14.4855 6.29 14.5782C6.29178 14.671 6.31187 14.7625 6.3491 14.8474C6.38634 14.9324 6.43999 15.0092 6.50698 15.0733C6.57396 15.1375 6.65296 15.1878 6.73945 15.2214C6.82593 15.2549 6.91819 15.271 7.01092 15.2688L7.10353 15.2671C6.6085 15.8167 6.25835 16.4812 6.08475 17.2002C5.91115 17.9193 5.91958 18.6703 6.10928 19.3853C6.13248 19.4754 6.1733 19.56 6.22937 19.6342C6.28544 19.7084 6.35566 19.7708 6.43597 19.8178C6.51629 19.8647 6.6051 19.8953 6.69729 19.9077C6.78948 19.9201 6.88322 19.9142 6.97309 19.8902C7.06297 19.8662 7.1472 19.8246 7.22092 19.7679C7.29465 19.7111 7.3564 19.6404 7.40263 19.5596C7.44885 19.4789 7.47863 19.3898 7.49024 19.2975C7.50185 19.2053 7.49506 19.1116 7.47027 19.0219Z" fill="#084444"/>
<path d="M15.7436 16.9886C15.5885 16.8845 15.3984 16.8462 15.2151 16.8822C15.0318 16.9182 14.8703 17.0255 14.7662 17.1806L14.7144 17.2576C14.548 16.5368 14.2045 15.8689 13.7149 15.3143C13.2254 14.7597 12.6053 14.3359 11.9107 14.0813C11.8238 14.0494 11.7314 14.0348 11.6388 14.0386C11.5462 14.0424 11.4553 14.0644 11.3712 14.1034C11.2871 14.1424 11.2116 14.1976 11.1489 14.2658C11.0862 14.334 11.0376 14.414 11.0058 14.501C10.9741 14.5881 10.9598 14.6805 10.9639 14.7731C10.9679 14.8657 10.9902 14.9566 11.0294 15.0405C11.0686 15.1245 11.124 15.1998 11.1924 15.2624C11.2608 15.3249 11.3409 15.3733 11.428 15.4048C11.8877 15.5734 12.2999 15.8506 12.6293 16.213C12.9586 16.5753 13.1955 17.0119 13.3196 17.4856L13.2647 17.4456C13.1137 17.3372 12.9259 17.2929 12.7424 17.3224C12.5588 17.3518 12.3943 17.4527 12.2848 17.6029C12.1753 17.7531 12.1296 17.9405 12.1578 18.1243C12.1859 18.3081 12.2855 18.4733 12.4349 18.5839L13.9147 19.6628C13.9913 19.7186 14.0784 19.7584 14.1707 19.7798C14.263 19.8012 14.3587 19.8037 14.4521 19.7872C14.5454 19.7708 14.6344 19.7356 14.7139 19.6839C14.7933 19.6322 14.8615 19.565 14.9143 19.4863L15.9355 17.966C16.0397 17.811 16.078 17.6209 16.042 17.4376C16.006 17.2543 15.8987 17.0928 15.7436 16.9886Z" fill="#084444"/>
</svg>
